<svg width="89" height="88" viewBox="0 0 89 88" fill="none" xmlns="http://www.w3.org/2000/svg">
<path opacity="0.8" d="M34.6403 19.9522C37.3691 16.4767 45.0275 13.9971 50.2352 17.0076C55.443 20.0182 60.1381 37.2695 56.5218 40.7972C56.421 41.3536 51.2878 44.9359 48.6646 43.6255C46.0413 42.3151 46.5296 36.115 44.3715 33.883C42.2134 31.6509 38.8672 31.561 36.2744 30.1822C33.6816 28.8034 31.9114 23.4277 34.6403 19.9522Z" fill="white"/>
<path opacity="0.8" d="M32.1981 22.1169C31.0552 23.6336 28.6266 23.7312 26.7736 22.3349C24.9206 20.9386 24.345 18.5771 25.4879 17.0604C26.6309 15.5437 29.0595 15.4461 30.9125 16.8424C32.7654 18.2388 33.341 20.6002 32.1981 22.1169Z" fill="white"/>
<path opacity="0.8" d="M36.4743 17.1779C35.5021 17.9937 33.939 17.7314 32.983 16.5921C32.027 15.4528 32.0401 13.8679 33.0123 13.0521C33.9846 12.2363 35.5477 12.4986 36.5037 13.6379C37.4597 14.7772 37.4466 16.3621 36.4743 17.1779Z" fill="white"/>
<path opacity="0.8" d="M40.299 15.3234C39.1116 15.5542 37.925 14.5894 37.6488 13.1684C37.3726 11.7473 38.1113 10.4083 39.2987 10.1774C40.4861 9.94663 41.6727 10.9115 41.9489 12.3325C42.2251 13.7535 41.4864 15.0926 40.299 15.3234Z" fill="white"/>
<path opacity="0.8" d="M44.5298 14.6407C43.4362 14.4479 42.7338 13.2467 42.9611 11.9577C43.1884 10.6688 44.2592 9.78027 45.3528 9.9731C46.4464 10.1659 47.1488 11.3671 46.9215 12.6561C46.6942 13.945 45.6234 14.8335 44.5298 14.6407Z" fill="white"/>
<path opacity="0.8" d="M49.1134 15.4704C48.1763 15.0918 47.7683 13.9148 48.2019 12.8415C48.6356 11.7682 49.7467 11.205 50.6837 11.5836C51.6208 11.9621 52.0288 13.1391 51.5952 14.2124C51.1615 15.2858 50.0504 15.849 49.1134 15.4704Z" fill="white"/>
<path opacity="0.8" d="M38.0625 54.2761C35.2899 57.7168 34.5967 65.7366 38.7016 70.1337C42.8064 74.5308 60.6718 75.2248 63.2955 70.9077C63.8151 70.6843 66.1507 64.8768 64.2838 62.6156C62.4169 60.3544 56.4856 62.2249 53.8253 60.6242C51.165 59.0235 50.3247 55.7832 48.3979 53.567C46.4712 51.3508 40.8351 50.8354 38.0625 54.2761Z" fill="white"/>
<path opacity="0.8" d="M33.2032 45.6743C31.9081 47.0633 32.2337 49.4719 33.9305 51.0543C35.6274 52.6366 38.0529 52.7934 39.3481 51.4045C40.6433 50.0156 40.3177 47.6069 38.6208 46.0246C36.924 44.4422 34.4984 44.2854 33.2032 45.6743Z" fill="white"/>
<path opacity="0.8" d="M35.7718 56.6872C36.348 55.5564 35.7408 54.0923 34.4157 53.4171C33.0905 52.7419 31.5491 53.1112 30.973 54.242C30.3968 55.3728 31.004 56.8369 32.3291 57.5121C33.6543 58.1873 35.1957 57.818 35.7718 56.6872Z" fill="white"/>
<path opacity="0.8" d="M34.8254 60.831C34.7832 59.6221 33.5761 58.683 32.1294 58.7335C30.6827 58.7841 29.5441 59.805 29.5863 61.0139C29.6285 62.2229 30.8355 63.1619 32.2823 63.1114C33.729 63.0609 34.8676 62.0399 34.8254 60.831Z" fill="white"/>
<path opacity="0.8" d="M35.112 65.107C34.678 64.0848 33.3496 63.6707 32.1449 64.1821C30.9401 64.6935 30.3152 65.9367 30.7491 66.9589C31.183 67.9811 32.5114 68.3953 33.7162 67.8839C34.921 67.3725 35.5459 66.1292 35.112 65.107Z" fill="white"/>
<path opacity="0.8" d="M36.9514 69.3864C36.3717 68.5585 35.1331 68.4257 34.1848 69.0897C33.2366 69.7536 32.9378 70.963 33.5174 71.7908C34.0971 72.6187 35.3357 72.7515 36.284 72.0876C37.2322 71.4236 37.531 70.2142 36.9514 69.3864Z" fill="white"/>
</svg>
